<svg xmlns="http://www.w3.org/2000/svg" viewBox="0 0 24 24" fill="none" stroke="currentColor" stroke-width="2" stroke-linecap="round" stroke-linejoin="round">
  <circle cx="12" cy="12" r="10"/>
  <path d="M2 12h20M12 2c3 5 3 13 0 20M4 6c4 .5 12 .5 16 0M4 18c4-.5 12-.5 16 0"/>
</svg><svg xmlns="http://www.w3.org/2000/svg" viewBox="0 0 24 24" fill="none" stroke="currentColor" stroke-width="2" stroke-linecap="round" stroke-linejoin="round">
  <circle cx="12" cy="12" r="10"/>
  <path d="M2 12h20M12 2c3 5 3 13 0 20M4 6c4 .5 12 .5 16 0M4 18c4-.5 12-.5 16 0"/>
</svg>
<svg viewBox="0 0 24 24" fill="none" stroke="currentColor" stroke-width="2" stroke-linecap="round" stroke-linejoin="round">
  <circle cx="12" cy="12" r="10"/>
  <path d="M2 12h20M12 2c3 5 3 13 0 20M4 6c4 .5 12 .5 16 0M4 18c4-.5 12-.5 16 0"/>
</svg>
<svg xmlns="http://www.w3.org/2000/svg" viewBox="0 0 32 32" width="32" height="32"><g><circle cx="16" cy="16" r="10" fill="#4caf50"/><rect x="14" y="6" width="4" height="20" rx="2" fill="#fff"/></g></svg>